<?xml version="1.0" encoding="UTF-8"?>
<svg version="1.1" xmlns="http://www.w3.org/2000/svg" width="900" height="500">
<path d="M0 0 C1.23356787 11.76664186 1.46612241 23.58531458 1.84790039 35.40258789 C1.92661154 37.77072477 2.00558274 40.13885303 2.08479309 42.50697327 C2.29823904 48.91166643 2.50792758 55.31647752 2.71682668 61.72132039 C2.91386437 67.75563113 3.1140031 73.78983941 3.3137676 79.82406037 C3.70948469 91.78081858 4.10225574 103.73767175 4.4934082 115.69458008 C4.87224795 127.27506188 5.25337409 138.85546554 5.63696289 150.43579102 C6.05555095 163.07284529 6.47301416 175.70993568 6.88840669 188.34709543 C6.92140795 189.35106529 6.92140795 189.35106529 6.9550759 190.37531738 C6.99925214 191.71926614 7.04342595 193.06321498 7.0875973 194.40716391 C7.24081144 199.06690855 7.39478289 203.7266276 7.54899788 208.38633919 C7.75671527 214.66623381 7.96259694 220.94618607 8.16708183 227.22618675 C8.24224573 229.52594145 8.31801796 231.82567636 8.39445496 234.1253891 C8.49899285 237.27377167 8.60128027 240.42221985 8.70301819 243.57069397 C8.73346366 244.47207676 8.76390912 245.37345956 8.79527718 246.30215698 C8.99343116 252.53741364 9.02388407 258.76155792 9 265 C14.94 265 20.88 265 27 265 C27.09765625 274.27734375 27.09765625 274.27734375 27 277 C25.10877886 278.89122114 21.80408428 278.12782618 19.29296875 278.12939453 C18.59217194 278.13114685 17.89137512 278.13289917 17.16934204 278.13470459 C14.84203651 278.13912266 12.51480636 278.13618529 10.1875 278.1328125 C8.57706691 278.13348555 6.96663391 278.13445559 5.35620117 278.13571167 C1.97671545 278.13718858 -1.4027439 278.13503431 -4.78222656 278.13037109 C-9.12376505 278.1246738 -13.46524173 278.12795285 -17.80677795 278.13394356 C-21.13350901 278.13754936 -24.4602253 278.1364105 -27.78695679 278.13381577 C-29.38821418 278.13314655 -30.9894729 278.13397474 -32.59072876 278.13629532 C-34.82484511 278.13882216 -37.05886 278.13498085 -39.29296875 278.12939453 C-41.20372192 278.12820114 -41.20372192 278.12820114 -43.15307617 278.12698364 C-46 278 -46 278 -47 277 C-47.09851171 275.16884117 -47.12972629 273.33380067 -47.125 271.5 C-47.12757813 270.4996875 -47.13015625 269.499375 -47.1328125 268.46875 C-47 266 -47 266 -46 265 C-43.14122091 264.76298761 -40.30116703 264.57780818 -37.4375 264.4375 C-36.63119141 264.39431641 -35.82488281 264.35113281 -34.99414062 264.30664062 C-32.99631195 264.20024738 -30.9981793 264.09959112 -29 264 C-28.96153552 262.77047859 -28.92307104 261.54095718 -28.88344097 260.27417755 C-27.96942776 231.0772161 -27.04127225 201.88073389 -26.09573783 172.68477777 C-25.97932995 169.08998541 -25.86304123 165.49518922 -25.74682617 161.90039062 C-25.72368818 161.18474156 -25.7005502 160.4690925 -25.67671106 159.7317571 C-25.30252015 148.1493807 -24.93797976 136.56671972 -24.57701512 124.98392445 C-24.20632048 113.09581988 -23.82523317 101.20808114 -23.43452913 89.3206172 C-23.21541689 82.64490711 -23.00142379 75.96909388 -22.79875755 69.29286194 C-22.60783703 63.00855191 -22.4040966 56.72478796 -22.19053459 50.44120789 C-22.11443074 48.13553955 -22.04300393 45.82971133 -21.97661972 43.52374268 C-21.88521484 40.37304957 -21.7769289 37.22336627 -21.66447449 34.07336426 C-21.64208543 33.1628394 -21.61969636 32.25231454 -21.59662884 31.31419802 C-21.25143497 22.62380437 -18.50172045 14.1756307 -12.6953125 7.5 C-10.57305022 5.62223799 -8.31411363 4.25250149 -5.875 2.8125 C-4.98554688 2.28269531 -4.09609375 1.75289062 -3.1796875 1.20703125 C-1 0 -1 0 0 0 Z " fill="#000000" transform="translate(451,204)"/>
<path d="M0 0 C0.99 0.33 1.98 0.66 3 1 C2.01 1.33 1.02 1.66 0 2 C0 1.34 0 0.68 0 0 Z " fill="#000000" transform="translate(451,202)"/>
</svg>
