<?xml version="1.0" encoding="UTF-8"?>
<svg version="1.1" xmlns="http://www.w3.org/2000/svg" width="900" height="500">
<path d="M0 0 C1.43454534 2.16252939 2.43576762 4.02559636 3.4609375 6.375 C3.76789551 7.03779465 4.07485352 7.70058929 4.39111328 8.38346863 C5.40364651 10.58126301 6.38909765 12.7901466 7.375 15 C8.08379401 16.55194518 8.79426935 18.10312347 9.50634766 19.65356445 C11.33956638 23.65642402 13.1509714 27.6687507 14.95654297 31.68414307 C16.54286441 35.20483764 18.14627827 38.7176749 19.75 42.23046875 C21.57514218 46.231927 23.39763208 50.23452923 25.21020508 54.24169922 C28.59529206 61.72496103 32.00391061 69.19659064 35.44921875 76.65234375 C36.0168116 77.88153534 36.0168116 77.88153534 36.59587097 79.13555908 C38.5099892 83.2777084 40.43096436 87.41648662 42.36303711 91.55029297 C46.02454851 99.40512364 49.57178587 107.2769958 52.8671875 115.29296875 C53.77206037 117.44990284 54.68003434 119.60550316 55.58908081 121.76068115 C56.1477147 123.11168259 56.6909369 124.46917659 57.21731567 125.83306885 C58.77540973 129.86991736 60.3191231 133.5841103 63 137 C66.66483305 138.59288057 70.04960296 138.77938117 74 139 C81.20175178 141.86246843 85.65031259 146.05380611 89 153 C93.93980717 152.67607822 98.65667572 152.12133883 103.47265625 150.97265625 C104.27791748 150.78413086 105.08317871 150.59560547 105.9128418 150.40136719 C107.51150535 150.01901949 109.10593222 149.61832329 110.69458008 149.19628906 C115.26526529 148.11339268 118.9546961 147.97624972 123.59103394 148.81455994 C125.17562723 149.09891057 125.17562723 149.09891057 126.79223251 149.38900566 C131.71056965 150.325818 136.61821657 151.30272268 141.52001953 152.32250977 C142.6012056 152.54552765 143.68239166 152.76854553 144.79634094 152.99832153 C148.32565515 153.72700076 151.85425841 154.45905582 155.3828125 155.19140625 C157.84949251 155.70194016 160.31619824 156.21234978 162.78292847 156.72264099 C167.92884873 157.78775308 173.07441794 158.8545452 178.21972656 159.92260742 C184.1677779 161.15726488 190.11660139 162.38814841 196.06581604 163.61718708 C201.80616811 164.80321308 207.54586848 165.99236582 213.28530502 167.18281364 C215.72288273 167.68803896 218.16063954 168.19240095 220.59857559 168.69589424 C223.99092347 169.39686903 227.38251428 170.10139565 230.77392578 170.80688477 C231.78581467 171.01521439 232.79770355 171.22354401 233.84025574 171.43818665 C234.75963425 171.63019653 235.67901276 171.82220642 236.62625122 172.02003479 C237.42737398 172.18612527 238.22849674 172.35221575 239.05389595 172.52333927 C241 173 241 173 243 174 C243.02687279 175.81242052 243.04633715 177.62495233 243.0625 179.4375 C243.07410156 180.44683594 243.08570313 181.45617187 243.09765625 182.49609375 C243 185 243 185 242 186 C239.41352924 185.97857751 236.86846101 185.88131137 234.28808594 185.73046875 C233.03248682 185.66003609 233.03248682 185.66003609 231.75152206 185.58818054 C219.63016178 184.8555348 207.54459018 183.65682055 195.45711231 182.50838852 C191.94266359 182.1752434 188.42781772 181.84633698 184.9130249 181.5168457 C179.02965734 180.96470442 173.14657279 180.40962918 167.26367188 179.85253906 C160.47965941 179.21013619 153.69528649 178.5716603 146.91069436 177.9354105 C139.64131728 177.25367413 132.37218637 176.56934198 125.10313702 175.88412094 C123.02360548 175.68825167 120.94403162 175.49283718 118.86444855 175.29751587 C114.99049033 174.93348696 111.11681338 174.5665208 107.24316406 174.19921875 C106.10128632 174.09217621 104.95940857 173.98513367 103.78292847 173.87484741 C98.4977529 173.37137053 93.24655127 172.81543025 88 172 C87.835 172.680625 87.67 173.36125 87.5 174.0625 C85.31008067 178.35109203 81.87999001 181.19509056 78 184 C77.34 184 76.68 184 76 184 C75.814375 184.556875 75.62875 185.11375 75.4375 185.6875 C73.3867479 188.98653599 70.49659646 191.29453313 67 193 C66.01 192.67 65.02 192.34 64 192 C63.7525 192.86625 63.505 193.7325 63.25 194.625 C61.92620793 198.1992386 60.16974068 200.88099777 58 204 C57.31822584 205.32567199 56.64808564 206.65753688 56 208 C55.34 208.99 54.68 209.98 54 211 C53.54882812 211.95390625 53.09765625 212.9078125 52.6328125 213.890625 C50.99554399 217.00848562 49.27346866 219.18819476 46.875 221.75 C46.0809375 222.60851562 45.286875 223.46703125 44.46875 224.3515625 C43.6540625 225.22554687 42.839375 226.09953125 42 227 C40.45466694 228.70501748 38.91291056 230.41328448 37.375 232.125 C36.62734375 232.95515625 35.8796875 233.7853125 35.109375 234.640625 C33.26404078 236.70466549 31.43955515 238.78394121 29.625 240.875 C26.17283922 244.84097076 22.61249119 248.70517646 19.05175781 252.57324219 C15.89302035 256.0102442 12.79361664 259.49021321 9.734375 263.015625 C5.44320048 267.9253472 1.04197892 272.73874818 -3.328125 277.578125 C-6.70385022 281.32127609 -10.07137435 285.06796472 -13.375 288.875 C-16.89408224 292.92277065 -20.52836221 296.86160672 -24.18115234 300.78857422 C-26.61774648 303.42378955 -28.91315752 306.07842053 -31 309 C-35.87362847 308.54663921 -38.39042389 307.2910841 -42 304 C-40.44567314 299.44122011 -37.93257196 295.72112297 -35.1875 291.8125 C-34.70466553 291.11761475 -34.22183105 290.42272949 -33.72436523 289.70678711 C-29.52167377 283.68424904 -25.2240036 277.73052728 -20.91113281 271.78662109 C-17.21721128 266.69520591 -13.56033118 261.57973613 -9.9375 256.4375 C-9.44572266 255.73947266 -8.95394531 255.04144531 -8.44726562 254.32226562 C-6.9640698 252.21538693 -5.48184031 250.10783226 -4 248 C-2.02212564 245.18658795 -0.04318654 242.37393305 1.9375 239.5625 C2.67734131 238.51219604 2.67734131 238.51219604 3.43212891 237.44067383 C7.05856796 232.30449279 10.7413521 227.2111475 14.4375 222.125 C19.50500769 215.14798567 24.40257078 208.06888546 29.23901367 200.93017578 C33.23585944 195.05314436 37.37842811 189.30113535 41.66259766 183.63012695 C43.56628973 181.08718906 44.98736806 179.03789581 46 176 C45.2308002 174.27317419 45.2308002 174.27317419 44.0625 172.5 C41.37338413 167.39349076 41.15529136 162.6635703 42 157 C42.91009051 154.5227412 43.94256656 152.27854171 45.22265625 149.97265625 C46.20310614 147.4845799 45.85589981 146.50161021 45 144 C43.19105002 141.87215556 41.3813878 139.86985115 39.4375 137.875 C34 132.25557621 34 132.25557621 34 130 C33.34 130 32.68 130 32 130 C26.96051515 125.0866962 25.17563505 119.7231218 23.06640625 113.11328125 C22.71173279 112.03926056 22.35705933 110.96523987 21.99163818 109.8586731 C20.83562889 106.34738376 19.69898085 102.83015333 18.5625 99.3125 C17.76380003 96.87404152 16.96390242 94.43597501 16.1628418 91.99829102 C14.14250148 85.83938995 12.13798597 79.67547711 10.13891602 73.50964355 C8.41738701 68.20464028 6.68503689 62.90318309 4.953125 57.6015625 C3.19022036 52.20194554 1.42901433 46.80181738 -0.32006836 41.39770508 C-0.58110855 40.59183456 -0.84214874 39.78596405 -1.11109924 38.95567322 C-1.62163832 37.37783417 -2.13097846 35.7996066 -2.63902283 34.22096252 C-4.04000931 29.88544184 -5.4875648 25.57007759 -6.98291016 21.26611328 C-7.31176712 20.31019791 -7.64062408 19.35428253 -7.97944641 18.36940002 C-8.61753871 16.51942338 -9.26413006 14.67235019 -9.92033386 12.82872009 C-10.20677261 11.99458084 -10.49321136 11.16044159 -10.78833008 10.30102539 C-11.04665115 9.56590225 -11.30497223 8.83077911 -11.57112122 8.07337952 C-12.07343432 5.64498776 -11.92945374 4.29312049 -11 2 C-7.056427 -0.59917311 -4.48378785 -1.73532259 0 0 Z " fill="#000000" transform="translate(375,20)"/>
<path d="" fill="#000000" transform="translate(0,0)"/>
<path d="" fill="#000000" transform="translate(0,0)"/>
<path d="" fill="#000000" transform="translate(0,0)"/>
<path d="" fill="#000000" transform="translate(0,0)"/>
<path d="" fill="#000000" transform="translate(0,0)"/>
<path d="" fill="#000000" transform="translate(0,0)"/>
</svg>
